Coordinates
version=1
nRows=16
nColumns=30
inDegrees=yes

Units are S.I. units (second, meters, Newtons, ...)
Angles are in degrees.

endheader
time	floatyaw	floatroll	floatpitch	floatx	floaty	floatz	pro_sup_l	deviation_l	flexion_l	cmc_flexion_l	cmc_abduction_l	mp_flexion_l	ip_flexion_l	2mcp_flexion_l	2mcp_abduction_l	2pm_flexion_l	2md_flexion_l	3mcp_flexion_l	3mcp_abduction_l	3pm_flexion_l	3md_flexion_l	4mcp_flexion_l	4mcp_abduction_l	4pm_flexion_l	4md_flexion_l	5mcp_flexion_l	5mcp_abduction_l	5pm_flexion_l	5md_flexion_l
-1.495000	-1.782892	-2.032873	94.941017	-0.007994	-0.271752	0.012046	90.112852	1.141268	-1.180987	25.791083	3.563457	-17.851025	-31.521855	19.880250	5.640593	31.922182	20.522601	9.191969	4.269330	34.342562	22.196176	-1.559110	-3.762281	50.758104	33.592600	-21.263012	-7.854091	60.172828	49.931326
-1.485000	-1.782892	-2.032873	94.941017	-0.007981	-0.271738	0.012014	90.101243	1.144998	-1.170691	25.789558	3.575888	-17.846068	-31.523546	19.872642	5.655390	31.922853	20.521267	9.187327	4.265465	34.361875	22.195265	-1.589514	-3.775279	50.777687	33.616246	-21.273130	-7.847563	60.151183	49.976133
-1.475000	-1.782892	-2.032873	94.941017	-0.007958	-0.271728	0.011976	90.088977	1.150573	-1.162048	25.795295	3.596543	-17.845068	-31.539831	19.856480	5.670030	31.945547	20.524971	9.165782	4.264455	34.410530	22.202713	-1.638512	-3.792547	50.835401	33.639764	-21.292014	-7.847521	60.147869	50.027585
-1.465000	-1.782892	-2.032873	94.941017	-0.007927	-0.271722	0.011936	90.079278	1.157703	-1.154857	25.809921	3.616504	-17.849974	-31.562752	19.829360	5.683237	31.991728	20.532273	9.130570	4.264434	34.481018	22.214540	-1.702784	-3.810399	50.927214	33.660257	-21.310878	-7.853287	60.157732	50.079461
-1.455000	-1.782892	-2.032873	94.941017	-0.007892	-0.271716	0.011895	90.074156	1.166392	-1.148355	25.830934	3.626578	-17.859796	-31.580825	19.793104	5.693526	32.054356	20.542496	9.089237	4.263551	34.559117	22.228016	-1.774614	-3.825225	51.041165	33.676899	-21.325187	-7.862185	60.180108	50.124195
-1.445000	-1.782892	-2.032873	94.941017	-0.007856	-0.271707	0.011856	90.073715	1.176426	-1.141887	25.854228	3.621648	-17.872367	-31.586846	19.753659	5.699574	32.120592	20.556032	9.050628	4.261201	34.629518	22.242992	-1.843725	-3.834642	51.160276	33.690431	-21.337209	-7.871199	60.219037	50.154339
-1.435000	-1.782892	-2.032873	94.941017	-0.007823	-0.271693	0.011821	90.076402	1.186844	-1.135536	25.876495	3.603251	-17.886198	-31.582280	19.719047	5.700731	32.177035	20.573258	9.021767	4.258094	34.681276	22.260678	-1.900150	-3.838085	51.267258	33.701741	-21.353543	-7.878316	60.278828	50.163890
-1.425000	-1.782892	-2.032873	94.941017	-0.007797	-0.271678	0.011796	90.080026	1.196014	-1.130398	25.896222	3.578928	-17.901197	-31.576063	19.696528	5.697388	32.214765	20.593009	9.006101	4.255346	34.710649	22.281132	-1.936836	-3.836658	51.349298	33.710687	-21.379422	-7.882934	60.358563	50.149851
-1.415000	-1.782892	-2.032873	94.941017	-0.007780	-0.271666	0.011784	90.082806	1.202394	-1.128284	25.913065	3.558762	-17.917929	-31.578882	19.690379	5.690928	32.231845	20.611907	9.003482	4.253425	34.720715	22.301527	-1.951138	-3.832383	51.401246	33.715991	-21.414077	-7.885316	60.450031	50.114108
-1.405000	-1.782892	-2.032873	94.941017	-0.007771	-0.271660	0.011786	90.083902	1.205483	-1.130814	25.926363	3.550669	-17.936020	-31.596380	19.700759	5.683227	32.232689	20.625226	9.010975	4.251704	34.718902	22.316557	-1.945255	-3.827255	51.426339	33.716029	-21.450562	-7.885629	60.540597	50.064580
-1.395000	-1.782892	-2.032873	94.941017	-0.007768	-0.271663	0.011798	90.083569	1.206285	-1.138275	25.934226	3.556384	-17.953020	-31.625471	19.723459	5.675995	32.225207	20.628934	9.023642	4.248819	34.713908	22.320731	-1.925715	-3.822523	51.434158	33.709630	-21.479822	-7.883280	60.618380	50.013865
-1.385000	-1.782892	-2.032873	94.941017	-0.007768	-0.271673	0.011812	90.083214	1.206881	-1.149099	25.934309	3.570255	-17.964875	-31.656460	19.750722	5.670352	32.217324	20.621767	9.035485	4.243543	34.712866	22.311148	-1.901454	-3.818453	51.436255	33.696392	-21.495628	-7.877086	60.675913	49.974809
-1.375000	-1.782892	-2.032873	94.941017	-0.007769	-0.271688	0.011823	90.085073	1.209208	-1.160566	25.925805	3.582191	-17.967900	-31.679626	19.773767	5.666863	32.214154	20.606089	9.041352	4.235611	34.719141	22.289089	-1.880441	-3.814622	51.440936	33.676734	-21.496913	-7.866243	60.710765	49.954848
-1.365000	-1.782892	-2.032873	94.941017	-0.007771	-0.271705	0.011830	90.091063	1.213782	-1.170332	25.910621	3.583663	-17.960847	-31.691095	19.786556	5.665839	32.216570	20.586979	9.039455	4.225955	34.731346	22.259640	-1.866441	-3.810585	51.449790	33.652188	-21.486919	-7.851400	60.724612	49.952658
-1.355000	-1.782892	-2.032873	94.941017	-0.007773	-0.271722	0.011835	90.101051	1.219242	-1.177587	25.892288	3.573184	-17.945649	-31.693400	19.788685	5.667503	32.221566	20.570090	9.032534	4.216176	34.744399	22.229697	-1.858378	-3.806555	51.458267	33.625893	-21.471259	-7.834923	60.722753	49.959765
-1.345000	-1.782892	-2.032873	94.941017	-0.007777	-0.271741	0.011842	90.111818	1.223123	-1.183003	25.873668	3.557542	-17.926605	-31.691288	19.785166	5.671784	32.224312	20.559489	9.026122	4.207584	34.752571	22.205511	-1.853010	-3.803611	51.460125	33.602568	-21.456820	-7.820012	60.714109	49.966442
